<svg width="40" height="40" viewBox="0 0 40 40" fill="none" xmlns="http://www.w3.org/2000/svg">
<path d="M34.5589 4.1553C34.5137 4.15665 34.4686 4.16045 34.4238 4.16669H22.9167C22.751 4.16435 22.5866 4.19495 22.4329 4.25672C22.2791 4.31849 22.1392 4.41019 22.0213 4.52649C21.9033 4.6428 21.8096 4.78139 21.7457 4.93421C21.6818 5.08703 21.6489 5.25104 21.6489 5.41669C21.6489 5.58235 21.6818 5.74635 21.7457 5.89918C21.8096 6.052 21.9033 6.19059 22.0213 6.30689C22.1392 6.4232 22.2791 6.5149 22.4329 6.57667C22.5866 6.63843 22.751 6.66904 22.9167 6.66669H31.5657L18.6995 19.5329C18.5796 19.6481 18.4838 19.786 18.4178 19.9387C18.3518 20.0914 18.317 20.2557 18.3153 20.422C18.3136 20.5883 18.3451 20.7532 18.408 20.9072C18.4708 21.0612 18.5638 21.201 18.6814 21.3186C18.799 21.4362 18.9389 21.5292 19.0928 21.592C19.2468 21.6549 19.4118 21.6864 19.5781 21.6847C19.7444 21.683 19.9086 21.6482 20.0613 21.5822C20.214 21.5162 20.3519 21.4204 20.4671 21.3005L33.3333 8.43427V17.0834C33.331 17.249 33.3616 17.4135 33.4233 17.5672C33.4851 17.7209 33.5768 17.8608 33.6931 17.9787C33.8094 18.0967 33.948 18.1904 34.1008 18.2543C34.2537 18.3182 34.4177 18.3512 34.5833 18.3512C34.749 18.3512 34.913 18.3182 35.0658 18.2543C35.2186 18.1904 35.3572 18.0967 35.4735 17.9787C35.5898 17.8608 35.6815 17.7209 35.7433 17.5672C35.8051 17.4135 35.8357 17.249 35.8333 17.0834V5.57457C35.858 5.39473 35.8431 5.21167 35.7899 5.03814C35.7366 4.8646 35.6462 4.70475 35.5249 4.56968C35.4037 4.43462 35.2544 4.32759 35.0876 4.25602C34.9208 4.18446 34.7404 4.15009 34.5589 4.1553ZM10.4167 6.66669C6.97957 6.66669 4.16666 9.47961 4.16666 12.9167V29.5834C4.16666 33.0204 6.97957 35.8334 10.4167 35.8334H27.0833C30.5204 35.8334 33.3333 33.0204 33.3333 29.5834V21.25C33.3357 21.0844 33.3051 20.9199 33.2433 20.7662C33.1815 20.6125 33.0898 20.4726 32.9735 20.3547C32.8572 20.2367 32.7186 20.143 32.5658 20.0791C32.413 20.0151 32.249 19.9822 32.0833 19.9822C31.9177 19.9822 31.7537 20.0151 31.6008 20.0791C31.448 20.143 31.3094 20.2367 31.1931 20.3547C31.0768 20.4726 30.9851 20.6125 30.9233 20.7662C30.8616 20.9199 30.831 21.0844 30.8333 21.25V29.5834C30.8333 31.6696 29.1696 33.3334 27.0833 33.3334H10.4167C8.33041 33.3334 6.66666 31.6696 6.66666 29.5834V12.9167C6.66666 10.8304 8.33041 9.16669 10.4167 9.16669H18.75C18.9156 9.16904 19.0801 9.13843 19.2338 9.07667C19.3875 9.0149 19.5274 8.9232 19.6454 8.80689C19.7633 8.69059 19.857 8.552 19.9209 8.39917C19.9849 8.24635 20.0178 8.08235 20.0178 7.91669C20.0178 7.75104 19.9849 7.58703 19.9209 7.43421C19.857 7.28139 19.7633 7.1428 19.6454 7.02649C19.5274 6.91019 19.3875 6.81849 19.2338 6.75672C19.0801 6.69495 18.9156 6.66435 18.75 6.66669H10.4167Z" fill="black"/>
</svg>
